<?xml version="1.0" encoding="utf-8"?>
<!-- Generator: Adobe Illustrator 27.1.0, SVG Export Plug-In . SVG Version: 6.00 Build 0)  -->
<svg version="1.1" id="Calque_1" xmlns="http://www.w3.org/2000/svg" xmlns:xlink="http://www.w3.org/1999/xlink" x="0px" y="0px"
	 viewBox="0 0 19 19" style="enable-background:new 0 0 19 19;" xml:space="preserve">
<style type="text/css">
	.st0{opacity:0.63;}
	.st1{fill:#3C3B35;}
</style>
<g class="st0">
	<g>
		<path class="st1" d="M13.4,7.3c0,1.32-0.33,2.38-0.98,3.34c-0.13,0.2-0.1,0.3,0.05,0.45c1.53,1.52,3.05,3.04,4.57,4.56
			c0.24,0.24,0.36,0.51,0.25,0.85c-0.1,0.33-0.33,0.51-0.66,0.56c-0.3,0.05-0.54-0.09-0.74-0.29c-0.83-0.83-1.66-1.66-2.49-2.49
			c-0.69-0.69-1.39-1.38-2.07-2.08c-0.15-0.15-0.25-0.15-0.43-0.03c-3.12,2.03-7.09,0.82-8.5-2.61c-1.19-2.9,0.23-6.23,3.14-7.39
			C8.46,1,11.7,2.32,12.94,5.16C13.26,5.89,13.41,6.65,13.4,7.3z M3.65,7.45c0.02,2.24,1.84,4.05,4.07,4.03
			c2.22-0.01,4.04-1.84,4.02-4.06C11.73,5.19,9.91,3.39,7.68,3.4C5.46,3.41,3.64,5.24,3.65,7.45z"/>
	</g>
</g>
</svg>
